#Comment line ignore any data following # character 
#Hierarchical Translation and Rotation (.htr) file 
[Header]	
#Header keywords are followed by a single value 
FileType HTR		#Single word string
DataType HTRS		#Translation followed by rotation and scale data
FileVersion 1		#integer
NumSegments 64		#integer
NumFrames 3		#integer
DataFrameRate 30		#integer, data frame rate in this file
EulerRotationOrder ZYX
CalibrationUnits mm
RotationUnits Degrees
GlobalAxisofGravity Y
BoneLengthAxis Y
ScaleFactor 1.00
[SegmentNames&Hierarchy]
#CHILD	PARENT
Pinger_Root GLOBAL
Pelvis Pinger_Root
L_Hip Pelvis
R_Hip Pelvis
Rear_Leg01 Pelvis
Spine1 Pelvis
L_Leg01 L_Hip
L_Leg02 L_Leg01
L_Leg03 L_Leg02
L_Foot L_Leg03
L_Toe1_01 L_Foot
L_Toe2_01 L_Foot
L_Toe3_01 L_Foot
planeAlignerLeft L_Foot
L_Toe1_02 L_Toe1_01
L_Toe1_03 L_Toe1_02
L_Toe2_02 L_Toe2_01
L_Toe2_03 L_Toe2_02
L_Toe3_02 L_Toe3_01
L_Toe3_03 L_Toe3_02
planeLockWeightLeft planeAlignerLeft
R_Leg01 R_Hip
R_Leg02 R_Leg01
R_Leg03 R_Leg02
R_Foot R_Leg03
planeAlignerRight R_Foot
R_Toe1_01 R_Foot
R_Toe2_01 R_Foot
R_Toe3_01 R_Foot
planeLockWeightRight planeAlignerRight
R_Toe1_02 R_Toe1_01
R_Toe1_03 R_Toe1_02
R_Toe2_02 R_Toe2_01
R_Toe2_03 R_Toe2_02
R_Toe3_02 R_Toe3_01
R_Toe3_03 R_Toe3_02
Rear_Leg02 Rear_Leg01
Rear_Leg03 Rear_Leg02
Rear_Leg04 Rear_Leg03
Rear_Foot Rear_Leg04
planeAlignerCenter Rear_Foot
Rear_Toe1_01 Rear_Foot
Rear_Toe2_01 Rear_Foot
Rear_Toe3_01 Rear_Foot
planeLockWeightCenter planeAlignerCenter
Rear_Toe1_02 Rear_Toe1_01
Rear_Toe1_03 Rear_Toe1_02
Rear_Toe2_02 Rear_Toe2_01
Rear_Toe2_03 Rear_Toe2_02
Rear_Toe3_02 Rear_Toe3_01
Rear_Toe3_03 Rear_Toe3_02
Back_Bone Spine1
Head Spine1
Motor_Bone Back_Bone
Ping_Mechanism Back_Bone
BN_LookIK Head
bottomMouth Head
L_Mouth01 Head
L_mouthFront Head
mouthGun Head
R_Mouth01 Head
R_mouthFront Head
TopMouth Head
weapon_bone Head
[BasePosition]
#SegmentName Tx, Ty, Tz, Rx, Ry, Rz, BoneLength
Pinger_Root 0.000000 0.000000 0.000000 -90.000000 0.000000 0.000000 10.000000 
Pelvis 0.000000 0.000000 0.000000 0.000000 0.000000 0.000000 10.000000 
L_Hip 0.000000 0.000000 0.000000 0.000000 0.000000 0.000000 10.000000 
R_Hip 0.000000 0.000000 0.000000 0.000000 0.000000 0.000000 10.000000 
Rear_Leg01 0.000000 0.000000 0.000000 0.000000 0.000000 0.000000 10.000000 
Spine1 0.000000 0.000000 0.000000 0.000000 0.000000 0.000000 10.000000 
L_Leg01 0.000000 0.000000 0.000000 0.000000 0.000000 0.000000 10.000000 
L_Leg02 0.000000 0.000000 0.000000 0.000000 0.000000 0.000000 10.000000 
L_Leg03 0.000000 0.000000 0.000000 0.000000 0.000000 0.000000 10.000000 
L_Foot 0.000000 0.000000 0.000000 0.000000 0.000000 0.000000 10.000000 
L_Toe1_01 0.000000 0.000000 0.000000 0.000000 0.000000 0.000000 10.000000 
L_Toe2_01 0.000000 0.000000 0.000000 0.000000 0.000000 0.000000 10.000000 
L_Toe3_01 0.000000 0.000000 0.000000 0.000000 0.000000 0.000000 10.000000 
planeAlignerLeft 0.000000 0.000000 0.000000 0.000000 0.000000 0.000000 10.000000 
L_Toe1_02 0.000000 0.000000 0.000000 0.000000 0.000000 0.000000 10.000000 
L_Toe1_03 0.000000 0.000000 0.000000 0.000000 0.000000 0.000000 10.000000 
L_Toe2_02 0.000000 0.000000 0.000000 0.000000 0.000000 0.000000 10.000000 
L_Toe2_03 0.000000 0.000000 0.000000 0.000000 0.000000 0.000000 10.000000 
L_Toe3_02 0.000000 0.000000 0.000000 0.000000 0.000000 0.000000 10.000000 
L_Toe3_03 0.000000 0.000000 0.000000 0.000000 0.000000 0.000000 10.000000 
planeLockWeightLeft 0.000000 0.000000 0.000000 0.000000 0.000000 0.000000 10.000000 
R_Leg01 0.000000 0.000000 0.000000 0.000000 0.000000 0.000000 10.000000 
R_Leg02 0.000000 0.000000 0.000000 0.000000 0.000000 0.000000 10.000000 
R_Leg03 0.000000 0.000000 0.000000 0.000000 0.000000 0.000000 10.000000 
R_Foot 0.000000 0.000000 0.000000 0.000000 0.000000 0.000000 10.000000 
planeAlignerRight 0.000000 0.000000 0.000000 0.000000 0.000000 0.000000 10.000000 
R_Toe1_01 0.000000 0.000000 0.000000 0.000000 0.000000 0.000000 10.000000 
R_Toe2_01 0.000000 0.000000 0.000000 0.000000 0.000000 0.000000 10.000000 
R_Toe3_01 0.000000 0.000000 0.000000 0.000000 0.000000 0.000000 10.000000 
planeLockWeightRight 0.000000 0.000000 0.000000 0.000000 0.000000 0.000000 10.000000 
R_Toe1_02 0.000000 0.000000 0.000000 0.000000 0.000000 0.000000 10.000000 
R_Toe1_03 0.000000 0.000000 0.000000 0.000000 0.000000 0.000000 10.000000 
R_Toe2_02 0.000000 0.000000 0.000000 0.000000 0.000000 0.000000 10.000000 
R_Toe2_03 0.000000 0.000000 0.000000 0.000000 0.000000 0.000000 10.000000 
R_Toe3_02 0.000000 0.000000 0.000000 0.000000 0.000000 0.000000 10.000000 
R_Toe3_03 0.000000 0.000000 0.000000 0.000000 0.000000 0.000000 10.000000 
Rear_Leg02 0.000000 0.000000 0.000000 0.000000 0.000000 0.000000 10.000000 
Rear_Leg03 0.000000 0.000000 0.000000 0.000000 0.000000 0.000000 10.000000 
Rear_Leg04 0.000000 0.000000 0.000000 0.000000 0.000000 0.000000 10.000000 
Rear_Foot 0.000000 0.000000 0.000000 0.000000 0.000000 0.000000 10.000000 
planeAlignerCenter 0.000000 0.000000 0.000000 0.000000 0.000000 0.000000 10.000000 
Rear_Toe1_01 0.000000 0.000000 0.000000 0.000000 0.000000 0.000000 10.000000 
Rear_Toe2_01 0.000000 0.000000 0.000000 0.000000 0.000000 0.000000 10.000000 
Rear_Toe3_01 0.000000 0.000000 0.000000 0.000000 0.000000 0.000000 10.000000 
planeLockWeightCenter 0.000000 0.000000 0.000000 0.000000 0.000000 0.000000 10.000000 
Rear_Toe1_02 0.000000 0.000000 0.000000 0.000000 0.000000 0.000000 10.000000 
Rear_Toe1_03 0.000000 0.000000 0.000000 0.000000 0.000000 0.000000 10.000000 
Rear_Toe2_02 0.000000 0.000000 0.000000 0.000000 0.000000 0.000000 10.000000 
Rear_Toe2_03 0.000000 0.000000 0.000000 0.000000 0.000000 0.000000 10.000000 
Rear_Toe3_02 0.000000 0.000000 0.000000 0.000000 0.000000 0.000000 10.000000 
Rear_Toe3_03 0.000000 0.000000 0.000000 0.000000 0.000000 0.000000 10.000000 
Back_Bone 0.000000 0.000000 0.000000 0.000000 0.000000 0.000000 10.000000 
Head 0.000000 0.000000 0.000000 0.000000 0.000000 0.000000 10.000000 
Motor_Bone 0.000000 0.000000 0.000000 0.000000 0.000000 0.000000 10.000000 
Ping_Mechanism 0.000000 0.000000 0.000000 0.000000 0.000000 0.000000 10.000000 
BN_LookIK 0.000000 0.000000 0.000000 0.000000 0.000000 0.000000 10.000000 
bottomMouth 0.000000 0.000000 0.000000 0.000000 0.000000 0.000000 10.000000 
L_Mouth01 0.000000 0.000000 0.000000 0.000000 0.000000 0.000000 10.000000 
L_mouthFront 0.000000 0.000000 0.000000 0.000000 0.000000 0.000000 10.000000 
mouthGun 0.000000 0.000000 0.000000 0.000000 0.000000 0.000000 10.000000 
R_Mouth01 0.000000 0.000000 0.000000 0.000000 0.000000 0.000000 10.000000 
R_mouthFront 0.000000 0.000000 0.000000 0.000000 0.000000 0.000000 10.000000 
TopMouth 0.000000 0.000000 0.000000 0.000000 0.000000 0.000000 10.000000 
weapon_bone 0.000000 0.000000 0.000000 0.000000 0.000000 0.000000 10.000000 
#Beginning of Data. Separated by tabs
#Fr	Tx	Ty	Tz	Rx	Ry	Rz	SF
[Pinger_Root]
27 0.000000 0.000000 0.000000 -0.000075 -0.000000 -0.000020 0.000000
28 0.000000 0.000000 0.000000 -0.000075 -0.000000 -0.000020 0.000000
29 0.000000 0.000000 0.000000 -0.000075 -0.000000 -0.000020 0.000000
[Pelvis]
27 920.609924 489.691315 4363.953613 -38.444160 -81.810028 31.091490 4486.804199
28 922.548157 488.748474 4360.307617 -40.364235 -81.636017 33.033085 4483.553711
29 923.966675 488.112457 4354.428711 -43.084518 -81.375107 35.784355 4478.059570
[L_Hip]
27 5.766392 125.831482 872.656799 160.158691 -45.484905 122.312202 881.701050
28 5.766392 125.831482 872.656799 160.158691 -45.484905 122.312202 881.701050
29 5.766392 125.831482 872.656799 160.158691 -45.484905 122.312202 881.701050
[R_Hip]
27 5.765438 125.836372 -872.654907 38.087841 49.812687 125.703735 881.699829
28 5.765438 125.836372 -872.654907 38.087841 49.812687 125.703735 881.699829
29 5.765438 125.836372 -872.654907 38.087841 49.812687 125.703735 881.699829
[Rear_Leg01]
27 -192.298416 -925.602966 -0.001907 170.471619 -3.689097 -163.596222 945.367432
28 -192.298416 -925.602966 -0.001907 170.457733 -3.769004 -163.956421 945.367432
29 -192.298416 -925.602966 -0.001907 170.433182 -3.870538 -164.405914 945.367432
[Spine1]
27 290.604584 5.007505 0.000477 -12.096397 13.401944 0.342855 290.647736
28 290.604584 5.007505 0.000477 -11.948560 13.497443 0.415321 290.647736
29 290.604584 5.007505 0.000477 -11.800538 13.592759 0.488069 290.647736
[L_Leg01]
27 761.932007 -0.002384 -0.069261 26.174940 -7.630290 -30.143360 761.932068
28 761.932007 -0.002384 -0.069261 25.987555 -7.883164 -29.565445 761.932068
29 761.932007 -0.002384 -0.069261 25.726154 -8.253683 -28.694946 761.932068
[L_Leg02]
27 1441.140503 -0.000954 -0.000715 -1.364951 0.220440 -81.133087 1441.140503
28 1441.140503 -0.000954 -0.000715 -1.341682 0.211551 -81.731117 1441.140503
29 1441.140503 -0.000954 -0.000715 -1.318321 0.202905 -82.329140 1441.140503
[L_Leg03]
27 1686.963989 -0.000715 -0.000954 0.002313 -0.000401 109.676239 1686.963989
28 1686.963989 -0.000715 -0.000954 0.002312 -0.000406 109.913673 1686.963989
29 1686.963989 -0.000715 -0.000954 0.002311 -0.000411 110.151115 1686.963989
[L_Foot]
27 3041.570068 -30.715107 11.297464 -7.572714 12.705385 34.488892 3041.746094
28 3041.570068 -30.715107 11.297464 -7.627439 12.700174 34.523361 3041.746094
29 3041.570068 -30.715107 11.297464 -7.682167 12.694996 34.557838 3041.746094
[L_Toe1_01]
27 -188.216690 -224.732346 -21.137953 93.644760 -3.952538 -171.226959 293.899567
28 -188.216690 -224.732346 -21.137953 93.646156 -3.944775 -171.244812 293.899567
29 -188.216690 -224.732346 -21.137953 93.647522 -3.937010 -171.262650 293.899567
[L_Toe2_01]
27 200.746536 -219.926590 148.838394 -90.804306 -22.614920 -53.413780 332.896027
28 200.746536 -219.926590 148.838394 -90.814781 -22.610899 -53.391144 332.896027
29 200.746536 -219.926590 148.838394 -90.825256 -22.606869 -53.368519 332.896027
[L_Toe3_01]
27 188.832520 -219.859131 -191.078659 -101.527817 16.124390 -71.003815 347.140900
28 188.832520 -219.859131 -191.078659 -101.529465 16.136518 -70.987640 347.140900
29 188.832520 -219.859131 -191.078659 -101.531128 16.148647 -70.971474 347.140900
[planeAlignerLeft]
27 0.812531 -811.448792 -0.314951 0.000000 -90.000000 -90.001900 811.449280
28 0.812531 -811.448792 -0.314951 0.000000 -90.000000 -90.001900 811.449280
29 0.812531 -811.448792 -0.314951 0.000000 -90.000000 -90.001900 811.449280
[L_Toe1_02]
27 413.761139 0.000477 0.000000 0.000203 -25.410625 -0.000182 413.761139
28 413.761139 0.000477 0.000000 0.000203 -25.410625 -0.000182 413.761139
29 413.761139 0.000477 0.000000 0.000203 -25.410625 -0.000182 413.761139
[L_Toe1_03]
27 464.317322 0.000358 -0.000089 0.004003 55.905186 0.004003 464.317322
28 464.317322 0.000358 -0.000089 0.004005 55.921120 0.004005 464.317322
29 464.317322 0.000358 -0.000089 0.004007 55.937065 0.004007 464.317322
[L_Toe2_02]
27 342.235809 -0.000477 0.000238 0.001187 -72.481392 0.001187 342.235809
28 342.235809 -0.000477 0.000238 0.001187 -72.491821 0.001187 342.235809
29 342.235809 -0.000477 0.000238 0.001187 -72.502281 0.001187 342.235809
[L_Toe2_03]
27 420.210846 -0.000715 0.000000 0.030448 85.581993 0.030448 420.210846
28 420.210846 -0.000715 0.000000 0.030585 85.601852 0.030585 420.210846
29 420.210846 -0.000715 0.000000 0.030723 85.621536 0.030723 420.210846
[L_Toe3_02]
27 329.270111 0.000954 0.000000 0.001180 -78.132362 0.001180 329.270111
28 329.270111 0.000954 0.000000 0.001180 -78.145454 0.001180 329.270111
29 329.270111 0.000954 0.000000 0.001180 -78.158508 0.001180 329.270111
[L_Toe3_03]
27 439.137451 -0.001907 0.000954 -179.980576 86.889641 -179.977066 439.137451
28 439.137451 -0.001907 0.000954 -179.980682 86.874062 -179.977188 439.137451
29 439.137451 -0.001907 0.000954 -179.980789 86.858383 -179.977295 439.137451
[planeLockWeightLeft]
27 -0.000954 0.000238 -0.000305 -0.011826 -0.004376 0.005620 0.001029
28 -0.000954 0.000238 -0.000305 -0.011826 -0.004376 0.005620 0.001029
29 -0.000954 0.000238 -0.000305 -0.011826 -0.004376 0.005620 0.001029
[R_Leg01]
27 761.455627 -0.001907 -0.000358 123.151138 -23.366817 27.947821 761.455688
28 761.455627 -0.001907 -0.000358 123.486000 -23.917936 27.500481 761.455688
29 761.455627 -0.001907 -0.000358 123.827003 -24.466614 27.047672 761.455688
[R_Leg02]
27 1441.140625 0.000000 -0.000238 -2.062919 -0.578762 -139.434036 1441.140625
28 1441.140625 0.000000 -0.000238 -2.079378 -0.588183 -139.899658 1441.140625
29 1441.140625 0.000000 -0.000238 -2.095760 -0.597738 -140.365280 1441.140625
[R_Leg03]
27 1686.963989 0.000954 0.001431 0.094282 -0.054556 136.278717 1686.963989
28 1686.963989 0.000954 0.001431 0.095382 -0.054180 136.379929 1686.963989
29 1686.963989 0.000954 0.001431 0.096482 -0.053806 136.481155 1686.963989
[R_Foot]
27 3041.560059 -30.531288 -11.204481 -11.189291 -24.195160 60.107647 3041.734131
28 3041.560059 -30.531288 -11.204481 -11.208597 -24.177830 60.201874 3041.734131
29 3041.560059 -30.531288 -11.204481 -11.227866 -24.160469 60.296078 3041.734131
[planeAlignerRight]
27 -0.635147 -812.270569 -0.364304 0.000000 -89.960434 -90.005180 812.270874
28 -0.635147 -812.270569 -0.364304 0.000000 -89.960434 -90.005180 812.270874
29 -0.635147 -812.270569 -0.364304 0.000000 -89.960434 -90.005180 812.270874
[R_Toe1_01]
27 -188.383347 -224.864899 21.052242 77.202370 8.954979 -170.383209 294.101532
28 -188.383347 -224.864899 21.052242 77.202370 8.954979 -170.383209 294.101532
29 -188.383347 -224.864899 21.052242 77.202370 8.954979 -170.383209 294.101532
[R_Toe2_01]
27 200.637817 -220.002121 -148.787384 -96.373779 44.386406 -60.485493 332.857574
28 200.637817 -220.002121 -148.787384 -96.373779 44.386406 -60.485493 332.857574
29 200.637817 -220.002121 -148.787384 -96.373779 44.386406 -60.485493 332.857574
[R_Toe3_01]
27 188.606735 -220.092957 191.126343 -76.579155 -3.084909 -66.590935 347.192566
28 188.606735 -220.092957 191.126343 -76.579155 -3.084908 -66.590927 347.192566
29 188.606735 -220.092957 191.126343 -76.579155 -3.084909 -66.590935 347.192566
[planeLockWeightRight]
27 -0.000477 0.000000 0.000000 -0.011823 -0.004379 -0.000027 0.000477
28 -0.000477 0.000000 0.000000 -0.011823 -0.004379 -0.000027 0.000477
29 -0.000477 0.000000 0.000000 -0.011823 -0.004379 -0.000027 0.000477
[R_Toe1_02]
27 413.762085 0.000477 -0.000119 0.001389 -25.343361 0.001389 413.762085
28 413.762085 0.000477 -0.000119 0.001389 -25.343363 0.001389 413.762085
29 413.762085 0.000477 -0.000119 0.001389 -25.343363 0.001389 413.762085
[R_Toe1_03]
27 464.317810 0.000000 0.001088 0.002946 43.045193 0.002946 464.317810
28 464.317810 0.000000 0.001088 0.002946 43.045193 0.002946 464.317810
29 464.317810 0.000000 0.001088 0.002946 43.045193 0.002946 464.317810
[R_Toe2_02]
27 342.234741 -0.000954 0.000238 0.001192 -69.681328 0.001192 342.234741
28 342.234741 -0.000954 0.000238 0.001192 -69.673141 0.001192 342.234741
29 342.234741 -0.000954 0.000238 0.001192 -69.664902 0.001192 342.234741
[R_Toe2_03]
27 420.210846 0.000715 -0.000268 0.012122 78.887825 0.012122 420.210846
28 420.210846 0.000715 -0.000268 0.012117 78.883728 0.012117 420.210846
29 420.210846 0.000715 -0.000268 0.012113 78.879654 0.012113 420.210846
[R_Toe3_02]
27 329.270355 -0.000477 -0.000954 0.001176 -83.005882 0.001176 329.270355
28 329.270355 -0.000477 -0.000954 0.001176 -83.002129 0.001176 329.270355
29 329.270355 -0.000477 -0.000954 0.001176 -82.998344 0.001176 329.270355
[R_Toe3_03]
27 439.137939 0.000238 0.001431 -179.999039 65.852890 -179.995468 439.137939
28 439.137939 0.000238 0.001431 -179.999039 65.852890 -179.995468 439.137939
29 439.137939 0.000238 0.001431 -179.999039 65.852890 -179.995468 439.137939
[Rear_Leg02]
27 1162.777710 -0.029802 0.005960 1.235117 -2.713311 -136.331894 1162.777710
28 1162.777710 -0.029802 0.005960 1.234009 -2.713253 -136.312836 1162.777710
29 1162.777710 -0.029802 0.005960 1.232902 -2.713195 -136.293777 1162.777710
[Rear_Leg03]
27 607.192505 -0.013351 -0.073195 0.010464 -0.005162 68.870239 607.192505
28 607.192505 -0.013351 -0.073195 0.010464 -0.005162 68.872238 607.192505
29 607.192505 -0.013351 -0.073195 0.010464 -0.005163 68.874229 607.192505
[Rear_Leg04]
27 995.874512 -0.020504 -0.011921 -0.040280 -0.018614 67.756340 995.874573
28 995.874512 -0.020504 -0.011921 -0.040278 -0.018619 67.741875 995.874573
29 995.874512 -0.020504 -0.011921 -0.040276 -0.018625 67.727402 995.874573
[Rear_Foot]
27 3096.176270 -0.067472 -0.041425 -169.919861 74.792938 16.811632 3096.176270
28 3096.176270 -0.067472 -0.041425 -169.941498 74.758690 16.776684 3096.176270
29 3096.176270 -0.067472 -0.041425 -169.963013 74.724503 16.741898 3096.176270
[planeAlignerCenter]
27 0.350077 0.966311 -838.790894 0.000009 0.000003 -179.999985 838.791565
28 0.350077 0.966311 -838.790894 0.000009 0.000003 -179.999985 838.791565
29 0.350077 0.966311 -838.790894 0.000009 0.000003 -179.999985 838.791565
[Rear_Toe1_01]
27 0.653352 83.966492 -371.173737 0.288091 41.914127 90.413170 380.553192
28 0.653352 83.966492 -371.173737 0.288091 41.914127 90.413170 380.553192
29 0.653352 83.966492 -371.173737 0.288091 41.914127 90.413170 380.553192
[Rear_Toe2_01]
27 178.200760 -294.826019 -362.060547 -7.196267 34.406261 -66.271294 499.765686
28 178.200760 -294.826019 -362.060547 -7.196267 34.406261 -66.271294 499.765686
29 178.200760 -294.826019 -362.060547 -7.196267 34.406261 -66.271294 499.765686
[Rear_Toe3_01]
27 -153.359680 -308.780914 -362.060852 3.289418 33.518005 -112.540970 499.952881
28 -153.359680 -308.780914 -362.060852 3.289418 33.518005 -112.540970 499.952881
29 -153.359680 -308.780914 -362.060852 3.289418 33.518005 -112.540970 499.952881
[planeLockWeightCenter]
27 -0.000062 0.000238 0.000000 -0.011814 -0.004373 -0.000015 0.000246
28 -0.000062 0.000238 0.000000 -0.011814 -0.004373 -0.000015 0.000246
29 -0.000062 0.000238 0.000000 -0.011814 -0.004373 -0.000015 0.000246
[Rear_Toe1_02]
27 379.707825 0.194073 0.000477 -0.000242 -31.676744 0.006934 379.707855
28 379.707825 0.194073 0.000477 -0.000242 -31.676744 0.006934 379.707855
29 379.707825 0.194073 0.000477 -0.000242 -31.676744 0.006934 379.707855
[Rear_Toe1_03]
27 500.129700 0.165701 0.000119 -0.000103 51.902481 0.007295 500.129761
28 500.129700 0.165701 0.000119 -0.000103 51.902485 0.007295 500.129761
29 500.129700 0.165701 0.000119 -0.000103 51.902485 0.007295 500.129761
[Rear_Toe2_02]
27 340.494507 0.000238 -0.000954 0.001192 -69.854523 0.001192 340.494507
28 340.494507 0.000238 -0.000954 0.001192 -69.854523 0.001192 340.494507
29 340.494507 0.000238 -0.000954 0.001192 -69.854523 0.001192 340.494507
[Rear_Toe2_03]
27 433.103577 0.000000 0.000238 0.006696 69.810326 0.006696 433.103546
28 433.103577 0.000000 0.000238 0.006696 69.810303 0.006696 433.103546
29 433.103577 0.000000 0.000238 0.006696 69.810326 0.006696 433.103546
[Rear_Toe3_02]
27 340.494141 -0.000358 -0.000477 0.008288 -67.274704 -0.009460 340.494171
28 340.494141 -0.000358 -0.000477 0.008288 -67.274704 -0.009460 340.494171
29 340.494141 -0.000358 -0.000477 0.008288 -67.274704 -0.009460 340.494171
[Rear_Toe3_03]
27 433.103577 0.001431 -0.000238 -0.000972 65.958984 -0.004547 433.103546
28 433.103577 0.001431 -0.000238 -0.000972 65.958961 -0.004547 433.103546
29 433.103577 0.001431 -0.000238 -0.000972 65.959007 -0.004547 433.103546
[Back_Bone]
27 1312.175781 -701.934692 0.000954 0.000023 -0.000007 -85.606667 1488.125488
28 1312.175781 -701.934692 0.000954 0.000023 -0.000007 -85.606667 1488.125488
29 1312.175781 -701.934692 0.000954 0.000023 -0.000007 -85.606667 1488.125488
[Head]
27 1406.159424 809.709290 0.001431 -0.036948 -0.268428 8.005450 1622.625488
28 1406.159424 809.709290 0.001431 0.130412 0.157033 7.157962 1622.625488
29 1406.159424 809.709290 0.001431 0.267578 0.318245 6.554106 1622.625488
[Motor_Bone]
27 1158.364380 -417.834747 0.000477 -0.000105 0.000046 -105.985291 1231.419434
28 1158.364380 -417.834747 0.000477 -0.000105 0.000046 -105.985291 1231.419434
29 1158.364380 -417.834747 0.000477 -0.000105 0.000046 -105.985291 1231.419434
[Ping_Mechanism]
27 1215.237793 -433.297150 0.000954 0.000103 -0.000053 82.120995 1290.174072
28 1215.237793 -433.297150 0.000954 0.000103 -0.000053 82.120995 1290.174072
29 1215.237793 -433.297150 0.000954 0.000103 -0.000053 82.120995 1290.174072
[BN_LookIK]
27 193.241119 1380.371704 -0.002861 0.000000 89.965736 -31.038179 1393.832153
28 193.241119 1380.371704 -0.002861 0.000000 89.965736 -31.038179 1393.832153
29 193.241119 1380.371704 -0.002861 0.000000 89.965736 -31.038179 1393.832153
[bottomMouth]
27 -435.092926 615.759399 -0.000954 -0.000022 0.000016 73.527184 753.966492
28 -435.092926 615.759399 -0.000954 -0.000022 0.000016 73.527184 753.966492
29 -435.092926 615.759399 -0.000954 -0.000022 0.000016 73.527184 753.966492
[L_Mouth01]
27 554.440979 7.658243 838.222046 150.204178 23.759130 109.605339 1005.027161
28 554.440979 7.658243 838.222046 150.204178 23.759130 109.605339 1005.027161
29 554.440979 7.658243 838.222046 150.204178 23.759130 109.605339 1005.027161
[L_mouthFront]
27 551.629089 934.514771 339.150421 0.000081 2.804060 79.119301 1136.941284
28 551.629089 934.514771 339.150421 0.000081 2.804060 79.119301 1136.941284
29 551.629089 934.514771 339.150421 0.000081 2.804060 79.119301 1136.941284
[mouthGun]
27 55.332661 1627.420898 0.000000 0.000023 0.000009 -11.038128 1628.361328
28 55.332661 1627.420898 0.000000 0.000023 0.000009 -11.038128 1628.361328
29 55.332661 1627.420898 0.000000 0.000023 0.000009 -11.038128 1628.361328
[R_Mouth01]
27 554.442383 7.659197 -838.223938 29.795891 -23.759109 109.605331 1005.029541
28 554.442383 7.659197 -838.223938 29.795891 -23.759109 109.605331 1005.029541
29 554.442383 7.659197 -838.223938 29.795891 -23.759109 109.605331 1005.029541
[R_mouthFront]
27 551.629089 934.514282 -339.151367 0.000029 -2.803930 79.119133 1136.941162
28 551.629089 934.514282 -339.151367 0.000029 -2.803930 79.119133 1136.941162
29 551.629089 934.514282 -339.151367 0.000029 -2.803930 79.119133 1136.941162
[TopMouth]
27 461.269867 -56.106091 -0.008583 -0.000059 -0.000268 92.025169 464.669525
28 461.269867 -56.106091 -0.008583 -0.000059 -0.000268 92.025169 464.669525
29 461.269867 -56.106091 -0.008583 -0.000059 -0.000268 92.025169 464.669525
[weapon_bone]
27 -987.239868 1448.372803 0.001431 0.000000 89.965736 -31.038221 1752.833740
28 -987.239868 1448.372803 0.001431 0.000000 89.965736 -31.038221 1752.833740
29 -987.239868 1448.372803 0.001431 0.000000 89.965736 -31.038221 1752.833740
